<?xml version="1.0" standalone="no"?>
<!DOCTYPE svg PUBLIC "-//W3C//DTD SVG 20010904//EN"
 "http://www.w3.org/TR/2001/REC-SVG-20010904/DTD/svg10.dtd">
<svg version="1.0" xmlns="http://www.w3.org/2000/svg"
 width="2559.000000pt" height="853.000000pt" viewBox="0 0 2559.000000 853.000000"
 preserveAspectRatio="xMidYMid meet">
<metadata>
Created by potrace 1.16, written by Peter Selinger 2001-2019
</metadata>
<g transform="translate(0.000000,853.000000) scale(0.100000,-0.100000)"
fill="#000000" stroke="none">
<path d="M1240 6101 c-30 -10 -70 -26 -89 -35 -44 -23 -131 -105 -131 -122 0
-12 77 -14 453 -14 508 0 531 -2 626 -67 60 -42 115 -117 137 -188 12 -40 14
-180 14 -837 l0 -788 85 0 85 0 0 428 c0 402 1 430 18 445 17 15 91 17 813 19
l794 3 5 365 c5 363 5 365 30 415 33 67 102 135 175 171 l60 29 483 3 c397 3
482 5 482 17 0 17 -94 101 -139 125 -105 53 7 50 -1995 49 -1745 0 -1854 -1
-1906 -18z"/>
<path d="M6230 4320 l0 -1800 993 2 c927 3 994 4 1024 21 49 26 103 85 127
136 l21 46 0 1590 c0 1333 -2 1596 -14 1629 -21 60 -93 132 -157 156 -54 20
-74 20 -1024 20 l-970 0 0 -1800z m1640 779 c58 -26 96 -62 128 -124 l27 -50
3 -890 c2 -610 -1 -906 -8 -942 -22 -103 -100 -178 -208 -202 -36 -7 -240 -11
-632 -11 l-580 0 0 1120 0 1120 613 0 c594 0 613 -1 657 -21z"/>
<path d="M9450 6104 c-43 -19 -67 -40 -89 -79 -14 -27 -16 -136 -21 -1170 l-5
-1140 -23 -45 c-59 -113 -149 -160 -304 -160 -87 0 -133 -17 -194 -72 -86 -79
-89 -93 -89 -428 0 -269 1 -288 21 -331 27 -57 84 -115 138 -140 38 -17 77
-19 631 -19 394 0 603 4 629 11 54 15 140 99 163 158 16 40 18 81 18 326 0
316 -3 331 -68 403 -64 69 -104 84 -236 93 -97 6 -122 11 -169 36 -63 31 -115
92 -132 151 -6 24 -10 411 -10 1139 0 751 -3 1111 -11 1130 -22 59 -140 153
-191 153 -13 -1 -39 -8 -58 -16z"/>
<path d="M10820 6099 c-65 -29 -127 -94 -150 -157 -20 -52 -20 -80 -20 -1622
0 -1556 0 -1570 20 -1624 24 -64 84 -130 143 -157 40 -18 81 -19 960 -19 989
0 944 -2 994 52 55 58 53 27 53 950 l0 853 -24 51 c-29 63 -85 120 -145 148
-44 20 -62 21 -491 24 -475 4 -495 2 -551 -45 -66 -56 -69 -70 -69 -448 0
-194 4 -355 10 -374 10 -35 58 -93 95 -114 13 -8 116 -14 310 -17 267 -5 294
-7 335 -26 60 -28 108 -77 137 -142 20 -47 23 -68 23 -191 0 -115 -3 -147 -19
-184 -28 -64 -82 -121 -144 -148 l-52 -24 -505 0 -505 0 -48 24 c-63 31 -105
74 -134 139 l-23 53 0 902 0 902 26 55 c30 65 65 104 119 133 40 22 46 22 780
27 806 5 767 2 822 62 51 54 53 72 53 440 -1 359 -4 393 -47 440 -10 11 -36
29 -58 39 -38 18 -88 19 -945 19 -888 0 -906 -1 -950 -21z"/>
<path d="M13865 6101 c-48 -22 -69 -44 -90 -94 -13 -32 -15 -170 -15 -1145 0
-1195 2 -1159 -52 -1238 -48 -72 -152 -114 -286 -114 -115 0 -205 -58 -254
-165 -22 -48 -23 -59 -23 -330 0 -245 2 -286 18 -326 23 -59 109 -143 163
-158 26 -7 235 -11 629 -11 666 0 633 -3 714 80 74 76 81 112 81 415 0 316 -6
342 -94 422 -61 56 -107 73 -199 73 -153 0 -241 44 -294 148 l-33 64 0 1108
c0 756 -3 1118 -11 1137 -22 59 -139 153 -191 153 -13 0 -41 -9 -63 -19z"/>
<path d="M15253 6103 c-61 -21 -138 -94 -160 -151 -17 -45 -18 -123 -18 -1632
0 -1500 1 -1587 18 -1631 23 -59 109 -143 163 -158 27 -7 326 -11 947 -11 762
0 912 2 935 14 36 19 78 65 91 99 7 18 11 155 11 380 0 321 -2 356 -19 392
-21 46 -54 79 -94 94 -19 8 -255 11 -722 11 -479 0 -710 4 -747 11 -62 14
-112 43 -155 92 -60 69 -58 29 -58 1027 l0 915 30 54 c16 29 45 66 64 82 73
60 57 59 835 59 671 0 713 1 751 19 99 46 139 143 100 238 -21 50 -42 72 -90
94 -38 18 -87 19 -940 18 -772 0 -906 -3 -942 -16z"/>
<path d="M17680 6109 c-32 -13 -78 -56 -96 -91 -22 -42 -21 -3336 1 -3378 8
-16 44 -50 80 -76 62 -44 69 -46 116 -42 40 4 57 12 85 39 20 19 41 43 47 54
9 14 13 188 17 615 l5 595 28 57 c33 68 82 111 152 135 45 16 98 18 540 18
l490 0 68 -33 c64 -32 103 -71 133 -137 5 -11 11 -285 14 -611 l5 -591 27 -35
c40 -53 129 -108 173 -108 61 0 131 51 154 113 8 20 11 537 11 1678 0 1823 6
1676 -66 1738 -89 79 -162 88 -230 29 -69 -61 -68 -57 -74 -428 l-5 -335 -28
-48 c-16 -26 -47 -61 -70 -78 -81 -59 -96 -60 -634 -57 l-488 3 -50 27 c-86
45 -129 105 -145 200 -5 34 -10 187 -10 339 l0 275 -36 43 c-42 48 -128 101
-164 100 -14 0 -36 -5 -50 -10z"/>
<path d="M20785 6106 c-39 -18 -80 -62 -99 -108 -14 -33 -16 -167 -16 -1156
l0 -1119 -31 -62 c-52 -105 -117 -139 -284 -151 -72 -5 -123 -13 -145 -25 -48
-24 -98 -72 -123 -120 -21 -39 -22 -51 -22 -350 0 -299 1 -311 22 -350 28 -53
78 -99 133 -124 44 -20 63 -21 640 -21 577 0 596 1 640 21 55 25 105 71 133
124 21 39 22 51 22 350 0 299 -1 311 -22 350 -25 48 -75 96 -123 120 -22 12
-74 21 -145 26 -127 9 -147 14 -195 45 -49 30 -86 72 -107 119 -17 38 -18 109
-23 1170 -4 833 -8 1135 -17 1150 -29 50 -140 125 -184 125 -13 -1 -37 -7 -54
-14z"/>
<path d="M22197 6099 c-21 -5 -50 -15 -66 -23 -46 -24 -117 -110 -130 -158 -9
-32 -11 -434 -9 -1628 l3 -1585 22 -41 c28 -53 105 -121 152 -134 49 -13 495
-13 545 1 25 7 58 30 92 63 87 87 84 63 84 771 0 670 0 671 59 752 19 26 50
51 88 69 l58 29 515 5 c568 6 547 3 625 71 21 19 49 56 61 84 l24 50 0 740 c0
700 -1 742 -19 781 -25 54 -83 111 -140 138 -46 21 -51 21 -986 23 -529 0
-957 -3 -978 -8z m1587 -380 c80 -26 128 -71 156 -146 19 -50 20 -77 20 -417
l0 -363 -31 -62 c-33 -66 -81 -109 -147 -133 -29 -10 -168 -13 -627 -13 l-590
0 -57 28 c-68 33 -111 82 -135 152 -16 44 -18 92 -18 405 l0 355 32 66 c23 46
45 75 72 93 78 54 81 55 693 55 553 1 569 0 632 -20z"/>
<path d="M931 5779 c-7 -22 -11 -190 -11 -515 l0 -484 610 0 611 0 -3 428 c-3
391 -5 431 -22 470 -22 51 -86 108 -135 122 -22 6 -237 10 -538 10 l-501 0
-11 -31z"/>
<path d="M4305 5795 c-50 -17 -117 -89 -133 -142 -8 -28 -12 -154 -12 -415 0
-350 -1 -376 -18 -391 -17 -15 -91 -17 -813 -19 l-794 -3 -3 -424 c-2 -378 -4
-427 -19 -443 -14 -16 -33 -18 -140 -18 l-123 0 0 -75 0 -75 755 0 755 0 0
420 0 421 25 24 c23 24 30 25 148 25 l123 0 23 31 c12 16 37 39 54 50 31 18
56 19 640 19 l608 0 -3 498 c-2 273 -7 505 -12 515 -8 16 -42 17 -515 17 -407
-1 -514 -4 -546 -15z"/>
<path d="M920 4310 l0 -360 600 0 c590 0 599 0 610 20 7 14 10 129 8 350 -3
281 -5 332 -18 340 -9 6 -252 10 -607 10 l-593 0 0 -360z"/>
<path d="M4176 4654 c-14 -13 -16 -59 -16 -348 0 -245 3 -335 12 -344 9 -9
158 -12 610 -12 l598 0 0 360 0 360 -594 0 c-527 0 -596 -2 -610 -16z"/>
<path d="M3880 4137 l0 -424 -23 -21 -23 -22 -792 0 -791 0 -3 -362 -3 -363
-29 -58 c-35 -68 -108 -140 -174 -170 -46 -22 -58 -22 -534 -25 -546 -3 -522
1 -445 -74 49 -48 160 -103 236 -118 74 -14 3628 -14 3702 0 30 6 83 24 119
41 64 30 160 111 160 136 0 10 -104 13 -487 15 l-488 3 -55 26 c-106 50 -180
150 -200 270 -6 40 -10 347 -10 817 l0 752 -80 0 -80 0 0 -423z"/>
<path d="M4162 3404 l3 -439 28 -48 c33 -55 83 -92 147 -106 27 -6 236 -11
531 -11 l487 0 11 44 c7 30 11 202 11 515 l0 471 -587 0 c-324 0 -598 3 -611
6 l-23 7 3 -439z"/>
<path d="M920 3353 c0 -304 4 -492 11 -516 l10 -38 512 3 512 3 52 29 c59 32
98 84 113 148 5 25 10 216 10 446 l0 402 -610 0 -610 0 0 -477z"/>
</g>
</svg>
